<?xml version="1.0" encoding="UTF-8"?>
<svg xmlns="http://www.w3.org/2000/svg" viewBox="0 0 120 120" fill="none" stroke="#065f46" stroke-width="3" stroke-linecap="round" stroke-linejoin="round"><ellipse cx="66" cy="60" rx="32" ry="24" fill="#cbd5e1"/><path d="M44 80 V98 M60 82 V100 M74 82 V100 M90 80 V98" stroke-width="9" stroke="#cbd5e1"/><path d="M44 80 V98 M60 82 V100 M74 82 V100 M90 80 V98"/><circle cx="36" cy="56" r="20" fill="#cbd5e1"/><ellipse cx="40" cy="50" rx="12" ry="14" fill="#b6c2cf"/><path d="M20 60 Q10 76 16 92 Q19 100 28 96" stroke-width="11" stroke="#cbd5e1" fill="none"/><path d="M20 60 Q10 76 16 92 Q19 100 28 96" stroke-width="3" fill="none"/><path d="M26 74 l-8 10" stroke-width="2.4"/><circle cx="30" cy="52" r="2.6" fill="#1F1B16" stroke="none"/><path d="M96 62 q6 2 4 10" stroke-width="2.4"/></svg>