<?xml version="1.0" encoding="UTF-8"?>
<svg xmlns="http://www.w3.org/2000/svg" viewBox="0 0 120 120" fill="none" stroke="#065f46" stroke-width="3" stroke-linecap="round" stroke-linejoin="round"><ellipse cx="64" cy="62" rx="30" ry="20" fill="#9ca3af"/><path d="M46 80 V100 M60 82 V100 M76 82 V100 M88 80 V98" stroke-width="8" stroke="#9ca3af"/><path d="M46 80 V100 M60 82 V100 M76 82 V100 M88 80 V98"/><ellipse cx="38" cy="52" rx="15" ry="14" fill="#9ca3af"/><path d="M30 40 Q26 22 33 24 Q38 30 36 44 Z" fill="#9ca3af"/><path d="M44 40 Q48 22 41 24 Q36 30 38 44 Z" fill="#9ca3af"/><circle cx="33" cy="52" r="2.4" fill="#1F1B16" stroke="none"/><path d="M94 58 q8 4 4 16" stroke-width="2.4"/><path d="M94 74 l-3 6" stroke-width="3"/></svg>