<?xml version="1.0" encoding="UTF-8"?>
<svg xmlns="http://www.w3.org/2000/svg" viewBox="0 0 480 320" fill="none" stroke="#1F1B16" stroke-width="2.6" stroke-linecap="round" stroke-linejoin="round"><circle cx="58" cy="56" r="24"/><path d="M58 22 V12 M58 100 V90 M24 56 H14 M102 56 H92 M34 32 l-7 -7 M82 80 l7 7 M82 32 l7 -7 M34 80 l-7 7"/><circle cx="51" cy="52" r="2.2" fill="#1F1B16"/><circle cx="65" cy="52" r="2.2" fill="#1F1B16"/><path d="M51 63 q7 6 14 0"/><path d="M170 74 l3 7 l7 3 l-7 3 l-3 7 l-3 -7 l-7 -3 l7 -3z"/><path d="M300 258 l2.6 6 l6 2.6 l-6 2.6 l-2.6 6 l-2.6 -6 l-6 -2.6 l6 -2.6z"/><path d="M0 292 H480"/><circle cx="336" cy="184" r="74"/><circle cx="336" cy="184" r="62"/><path d="M314 118 l14 14 M358 118 l-14 14"/><circle cx="306" cy="108" r="12"/><circle cx="366" cy="108" r="12"/><path d="M336 184 V140 M336 184 L370 196"/><circle cx="336" cy="184" r="6"/><path d="M336 122 v10 M398 184 h-10 M336 246 v-10 M274 184 h10"/><path d="M320 256 l-8 14 M352 256 l8 14"/><path d="M150 210 C 118 180 112 148 134 134 C 146 126 160 130 155 146 C 150 130 168 124 180 135 C 200 151 192 182 150 210 Z"/><circle cx="141" cy="158" r="3"/><circle cx="163" cy="158" r="3"/><path d="M143 170 q9 7 18 0"/><path d="M148 210 V236 M168 206 V232"/><path d="M182 156 L236 170"/><path d="M122 168 l-16 8"/></svg>
