<?xml version="1.0" encoding="UTF-8"?>
<svg xmlns="http://www.w3.org/2000/svg" viewBox="0 0 120 120">
  <ellipse cx="60" cy="110" rx="26" ry="5" fill="#065f46" opacity="0.10"/>
  <!-- brate -->
  <path d="M34 64 q-14 -2 -20 -12" fill="none" stroke="#065f46" stroke-width="3" stroke-linecap="round"/>
  <circle cx="13" cy="51" r="4.5" fill="#E07856" stroke="#065f46" stroke-width="2.2"/>
  <path d="M86 64 q14 -6 18 -18" fill="none" stroke="#065f46" stroke-width="3" stroke-linecap="round"/>
  <circle cx="106" cy="44" r="4.5" fill="#E07856" stroke="#065f46" stroke-width="2.2"/>
  <!-- picioare -->
  <path d="M50 92 l-3 16" fill="none" stroke="#065f46" stroke-width="3" stroke-linecap="round"/>
  <path d="M70 92 l3 16" fill="none" stroke="#065f46" stroke-width="3" stroke-linecap="round"/>
  <path d="M40 108 h12 M68 108 h12" stroke="#065f46" stroke-width="3.4" stroke-linecap="round"/>
  <!-- inima -->
  <path d="M60 92 C 26 66 20 44 34 33 C 43 26 55 28 60 40 C 65 28 77 26 86 33 C 100 44 94 66 60 92 Z"
        fill="#E07856" stroke="#065f46" stroke-width="3.2" stroke-linejoin="round"/>
  <!-- obraji -->
  <circle cx="44" cy="62" r="5.5" fill="#C25E3D" opacity="0.55"/>
  <circle cx="76" cy="62" r="5.5" fill="#C25E3D" opacity="0.55"/>
  <!-- ochi -->
  <circle cx="50" cy="52" r="4.4" fill="#1F1B16"/><circle cx="51.4" cy="50.6" r="1.4" fill="#fff"/>
  <circle cx="70" cy="52" r="4.4" fill="#1F1B16"/><circle cx="71.4" cy="50.6" r="1.4" fill="#fff"/>
  <!-- zambet -->
  <path d="M51 64 q9 8 18 0" fill="none" stroke="#1F1B16" stroke-width="2.6" stroke-linecap="round"/>
</svg>
