<?xml version="1.0" encoding="UTF-8"?>
<svg xmlns="http://www.w3.org/2000/svg" viewBox="0 0 480 320" fill="none" stroke="#1F1B16" stroke-width="2.6" stroke-linecap="round" stroke-linejoin="round"><circle cx="58" cy="56" r="24"/><path d="M58 22 V12 M58 100 V90 M24 56 H14 M102 56 H92 M34 32 l-7 -7 M82 80 l7 7 M82 32 l7 -7 M34 80 l-7 7"/><circle cx="51" cy="52" r="2.2" fill="#1F1B16"/><circle cx="65" cy="52" r="2.2" fill="#1F1B16"/><path d="M51 63 q7 6 14 0"/><path d="M150 60 l3 7 l7 3 l-7 3 l-3 7 l-3 -7 l-7 -3 l7 -3z"/><path d="M420 200 l2.6 6 l6 2.6 l-6 2.6 l-2.6 6 l-2.6 -6 l-6 -2.6 l6 -2.6z"/><path d="M0 292 H480"/><circle cx="352" cy="150" r="72"/><circle cx="352" cy="150" r="60"/><path d="M330 108 l14 14 M374 108 l-14 14"/><circle cx="322" cy="98" r="12"/><circle cx="382" cy="98" r="12"/><path d="M352 150 V108 M352 150 L386 162"/><circle cx="352" cy="150" r="6"/><path d="M352 100 v8 M402 150 h-8 M352 200 v-8 M302 150 h8"/><path d="M150 214 C 118 184 112 152 134 138 C 146 130 160 134 155 150 C 150 134 168 128 180 139 C 200 155 192 186 150 214 Z"/><circle cx="141" cy="162" r="3"/><circle cx="163" cy="162" r="3"/><path d="M143 174 q9 7 18 0"/><path d="M150 214 V236 M170 210 V232"/><path d="M186 168 L276 156"/><path d="M126 172 l-16 8"/></svg>