<?xml version="1.0" encoding="UTF-8"?>
<svg xmlns="http://www.w3.org/2000/svg" viewBox="0 0 120 120">
  <ellipse cx="64" cy="72" rx="34" ry="24" fill="#D4A574" stroke="#065f46" stroke-width="3"/>
  <g fill="#B88848" stroke="#065f46" stroke-width="2" stroke-linejoin="round">
    <path d="M40 54 l-6 -14 l12 8z"/><path d="M54 48 l-3 -16 l11 12z"/><path d="M70 47 l3 -16 l9 14z"/>
    <path d="M84 52 l9 -12 l3 15z"/><path d="M92 64 l13 -6 l-6 13z"/><path d="M46 50 l-13 -8 l15 -1z"/>
  </g>
  <path d="M30 76 q-10 2 -12 -4 q6 -6 14 -3z" fill="#FBE8D3" stroke="#065f46" stroke-width="2.6" stroke-linejoin="round"/>
  <circle cx="22" cy="72" r="3" fill="#1F1B16"/>
  <circle cx="34" cy="70" r="3.4" fill="#1F1B16"/>
  <path d="M50 90 v6 M66 92 v6 M82 90 v6" stroke="#065f46" stroke-width="3" stroke-linecap="round"/>
</svg>
