<?xml version="1.0" encoding="UTF-8"?>
<svg xmlns="http://www.w3.org/2000/svg" viewBox="0 0 120 120">
  <g stroke="#065f46" stroke-width="2.4" stroke-linecap="round">
    <path d="M40 56 l-16 -10 M40 66 l-18 0 M44 78 l-14 12 M80 56 l16 -10 M80 66 l18 0 M76 78 l14 12"/>
  </g>
  <ellipse cx="60" cy="66" rx="30" ry="28" fill="#E07856" stroke="#065f46" stroke-width="3"/>
  <path d="M60 40 a26 28 0 0 0 -26 26 h52 a26 28 0 0 0 -26 -26z" fill="#E07856"/>
  <path d="M38 42 a22 16 0 0 1 44 0z" fill="#1F1B16"/>
  <circle cx="50" cy="40" r="3" fill="#fff"/><circle cx="70" cy="40" r="3" fill="#fff"/>
  <path d="M60 50 v42" stroke="#065f46" stroke-width="2.6"/>
  <circle cx="46" cy="62" r="5" fill="#1F1B16"/><circle cx="74" cy="62" r="5" fill="#1F1B16"/>
  <circle cx="50" cy="80" r="5" fill="#1F1B16"/><circle cx="70" cy="80" r="5" fill="#1F1B16"/>
  <path d="M50 26 l-6 -8 M70 26 l6 -8" stroke="#065f46" stroke-width="2.6" stroke-linecap="round"/>
  <circle cx="43" cy="17" r="3" fill="#1F1B16"/><circle cx="77" cy="17" r="3" fill="#1F1B16"/>
</svg>
