<?xml version="1.0" encoding="UTF-8"?>
<svg xmlns="http://www.w3.org/2000/svg" viewBox="0 0 120 120">
  <path d="M8 86 q14 -8 26 0 q14 8 26 0 q14 -8 26 0 q14 8 26 0 l0 14 l-104 0z" fill="#10b981" stroke="#065f46" stroke-width="2.6" stroke-linejoin="round"/>
  <path d="M26 86 q34 -22 68 0z" fill="#D4A574" stroke="#065f46" stroke-width="3" stroke-linejoin="round"/>
  <path d="M60 64 v-26" fill="none" stroke="#B88848" stroke-width="5" stroke-linecap="round"/>
  <g fill="#10b981" stroke="#065f46" stroke-width="2.4" stroke-linejoin="round">
    <path d="M60 36 q-22 -6 -28 6 q18 -2 28 4z"/><path d="M60 36 q22 -6 28 6 q-18 -2 -28 4z"/>
    <path d="M60 34 q-8 -16 -22 -16 q10 8 22 18z"/><path d="M60 34 q8 -16 22 -16 q-10 8 -22 18z"/>
  </g>
  <circle cx="60" cy="40" r="4" fill="#D4A574" stroke="#065f46" stroke-width="2"/>
</svg>
