<?xml version="1.0" encoding="UTF-8"?>
<svg xmlns="http://www.w3.org/2000/svg" viewBox="0 0 120 120">
  <circle cx="92.0" cy="60.0" r="9" fill="#B88848" stroke="#065f46" stroke-width="2"/><circle cx="88.8" cy="73.9" r="9" fill="#B88848" stroke="#065f46" stroke-width="2"/><circle cx="80.0" cy="85.0" r="9" fill="#B88848" stroke="#065f46" stroke-width="2"/><circle cx="67.1" cy="91.2" r="9" fill="#B88848" stroke="#065f46" stroke-width="2"/><circle cx="52.9" cy="91.2" r="9" fill="#B88848" stroke="#065f46" stroke-width="2"/><circle cx="40.0" cy="85.0" r="9" fill="#B88848" stroke="#065f46" stroke-width="2"/><circle cx="31.2" cy="73.9" r="9" fill="#B88848" stroke="#065f46" stroke-width="2"/><circle cx="28.0" cy="60.0" r="9" fill="#B88848" stroke="#065f46" stroke-width="2"/><circle cx="31.2" cy="46.1" r="9" fill="#B88848" stroke="#065f46" stroke-width="2"/><circle cx="40.0" cy="35.0" r="9" fill="#B88848" stroke="#065f46" stroke-width="2"/><circle cx="52.9" cy="28.8" r="9" fill="#B88848" stroke="#065f46" stroke-width="2"/><circle cx="67.1" cy="28.8" r="9" fill="#B88848" stroke="#065f46" stroke-width="2"/><circle cx="80.0" cy="35.0" r="9" fill="#B88848" stroke="#065f46" stroke-width="2"/><circle cx="88.8" cy="46.1" r="9" fill="#B88848" stroke="#065f46" stroke-width="2"/>
  <circle cx="42" cy="44" r="9" fill="#D4A574" stroke="#065f46" stroke-width="2.4"/>
  <circle cx="78" cy="44" r="9" fill="#D4A574" stroke="#065f46" stroke-width="2.4"/>
  <circle cx="60" cy="60" r="27" fill="#D4A574" stroke="#065f46" stroke-width="3"/>
  <ellipse cx="60" cy="70" rx="16" ry="12" fill="#FBE8D3"/>
  <circle cx="51" cy="56" r="4" fill="#1F1B16"/><circle cx="69" cy="56" r="4" fill="#1F1B16"/>
  <path d="M55 66 l5 5 l5 -5z" fill="#E07856"/>
  <path d="M60 71 q-5 6 -10 4 M60 71 q5 6 10 4" fill="none" stroke="#065f46" stroke-width="2.2" stroke-linecap="round"/>
</svg>
