<?xml version="1.0" encoding="UTF-8"?>
<svg xmlns="http://www.w3.org/2000/svg" viewBox="0 0 120 120">
  <ellipse cx="60" cy="106" rx="30" ry="6" fill="#065f46" opacity="0.10"/>
  <path d="M86 70 q22 2 24 -16 q1 -10 -7 -12" fill="none" stroke="#B88848" stroke-width="4" stroke-linecap="round"/>
  <circle cx="34" cy="34" r="20" fill="#D4A574" stroke="#065f46" stroke-width="3"/>
  <circle cx="34" cy="34" r="11" fill="#E07856"/>
  <circle cx="86" cy="34" r="20" fill="#D4A574" stroke="#065f46" stroke-width="3"/>
  <circle cx="86" cy="34" r="11" fill="#E07856"/>
  <path d="M28 56 q32 -20 64 0 q14 20 4 40 q-36 22 -72 0 q-10 -20 4 -40z" fill="#D4A574" stroke="#065f46" stroke-width="3"/>
  <path d="M40 70 q20 -12 40 0 q8 14 0 26 q-20 12 -40 0 q-8 -12 0 -26z" fill="#FBF7EF"/>
  <circle cx="48" cy="66" r="5" fill="#1F1B16"/><circle cx="50" cy="64" r="1.6" fill="#fff"/>
  <circle cx="72" cy="66" r="5" fill="#1F1B16"/><circle cx="74" cy="64" r="1.6" fill="#fff"/>
  <ellipse cx="60" cy="78" rx="5" ry="4" fill="#E07856"/>
  <path d="M60 82 q0 6 -7 7 M60 82 q0 6 7 7" fill="none" stroke="#065f46" stroke-width="2" stroke-linecap="round"/>
  <path d="M20 70 l-12 -4 M22 78 l-13 1 M88 70 l12 -4 M86 78 l13 1" stroke="#065f46" stroke-width="2" stroke-linecap="round"/>
  <path d="M80 22 l8 -6 l-2 9 l8 1 l-9 5z" fill="#10b981" stroke="#065f46" stroke-width="2" stroke-linejoin="round"/>
</svg>
