<?xml version="1.0" encoding="UTF-8"?>
<svg xmlns="http://www.w3.org/2000/svg" viewBox="0 0 120 120">
  <path d="M36 56 q0 -28 24 -28 q24 0 24 28 l0 14 l-48 0z" fill="#E07856" stroke="#065f46" stroke-width="3" stroke-linejoin="round"/>
  <g fill="#E07856" stroke="#065f46" stroke-width="2.6" stroke-linejoin="round">
    <path d="M38 68 q-10 14 -4 26 q6 -2 6 -12z"/><path d="M50 70 q-4 18 -14 22 q2 -16 6 -22z"/>
    <path d="M60 72 q0 20 -2 24 q-6 -14 -4 -24z"/><path d="M70 70 q4 18 14 22 q-2 -16 -6 -22z"/>
    <path d="M82 68 q10 14 4 26 q-6 -2 -6 -12z"/>
  </g>
  <circle cx="51" cy="50" r="5" fill="#fff" stroke="#065f46" stroke-width="2"/><circle cx="51" cy="50" r="2.2" fill="#1F1B16"/>
  <circle cx="69" cy="50" r="5" fill="#fff" stroke="#065f46" stroke-width="2"/><circle cx="69" cy="50" r="2.2" fill="#1F1B16"/>
  <path d="M54 60 q6 4 12 0" fill="none" stroke="#065f46" stroke-width="2.2" stroke-linecap="round"/>
</svg>
