<?xml version="1.0" encoding="UTF-8"?>
<svg xmlns="http://www.w3.org/2000/svg" viewBox="0 0 120 120">
  <path d="M30 50 q0 -30 30 -30 q30 0 30 30 q0 6 -3 12 l-54 0 q-3 -6 -3 -12z" fill="#cbd5d0" stroke="#065f46" stroke-width="3"/>
  <circle cx="60" cy="58" r="24" fill="#FBE8D3" stroke="#065f46" stroke-width="3"/>
  <circle cx="60" cy="36" r="9" fill="#cbd5d0" stroke="#065f46" stroke-width="2.6"/>
  <circle cx="50" cy="56" r="8" fill="none" stroke="#065f46" stroke-width="2.4"/><circle cx="70" cy="56" r="8" fill="none" stroke="#065f46" stroke-width="2.4"/>
  <path d="M58 56 h4" stroke="#065f46" stroke-width="2.4"/>
  <circle cx="50" cy="56" r="2.6" fill="#1F1B16"/><circle cx="70" cy="56" r="2.6" fill="#1F1B16"/>
  <path d="M52 70 q8 6 16 0" fill="none" stroke="#E07856" stroke-width="3" stroke-linecap="round"/>
  <circle cx="44" cy="66" r="3.5" fill="#E07856" opacity="0.4"/><circle cx="76" cy="66" r="3.5" fill="#E07856" opacity="0.4"/>
  <path d="M30 98 q30 -20 60 0 l0 4 l-60 0z" fill="#E07856" stroke="#065f46" stroke-width="3" stroke-linejoin="round"/>
</svg>
