<svg xmlns="http://www.w3.org/2000/svg" viewBox="0 0 140 200"><defs><marker id="ah" viewBox="0 0 10 10" refX="7.5" refY="5" markerWidth="3.4" markerHeight="3.4" orient="auto-start-reverse"><path d="M0 0 L10 5 L0 10 z" fill="#10b981"/></marker></defs><path d="M40 160 V90 M40 100 q0 -18 17 -18 q15 0 15 20 V160 M72 102 q0 -20 17 -20 q14 0 14 18 V160" fill="none" stroke="#d8ceba" stroke-width="26" stroke-linecap="round" stroke-linejoin="round"/><line x1="40" y1="156" x2="40" y2="96" stroke="#10b981" stroke-width="6.5" stroke-linecap="round" stroke-dasharray="0.1 13" marker-end="url(#ah)"/><path d="M41 100 q3 -16 16 -16 q15 0 15 18 V154" fill="none" stroke="#10b981" stroke-width="6.5" stroke-linecap="round" stroke-dasharray="0.1 13" marker-end="url(#ah)"/><path d="M73 102 q3 -18 16 -18 q14 0 14 16 V154" fill="none" stroke="#10b981" stroke-width="6.5" stroke-linecap="round" stroke-dasharray="0.1 13" marker-end="url(#ah)"/><circle cx="40" cy="160" r="12" fill="#10b981"/><text x="40" y="160" font-family="Arial" font-size="15" font-weight="700" fill="#fff" text-anchor="middle" dominant-baseline="central">1</text><circle cx="40" cy="90" r="11" fill="#10b981"/><text x="40" y="90" font-family="Arial" font-size="14" font-weight="700" fill="#fff" text-anchor="middle" dominant-baseline="central">2</text></svg>