<?xml version="1.0" encoding="UTF-8"?>
<svg xmlns="http://www.w3.org/2000/svg" viewBox="0 0 120 120">
  <path d="M30 38 l-4 -16 l16 10z" fill="#D4A574" stroke="#065f46" stroke-width="3" stroke-linejoin="round"/>
  <path d="M90 38 l4 -16 l-16 10z" fill="#D4A574" stroke="#065f46" stroke-width="3" stroke-linejoin="round"/>
  <circle cx="60" cy="60" r="32" fill="#D4A574" stroke="#065f46" stroke-width="3"/>
  <g stroke="#1F1B16" stroke-width="3" stroke-linecap="round"><path d="M44 36 l-4 10 M60 32 v10 M76 36 l4 10 M32 60 l-8 -3 M88 60 l8 -3 M34 72 l-9 2 M86 72 l9 2"/></g>
  <ellipse cx="60" cy="72" rx="16" ry="12" fill="#FBE8D3"/>
  <circle cx="50" cy="56" r="4" fill="#1F1B16"/><circle cx="70" cy="56" r="4" fill="#1F1B16"/>
  <path d="M55 70 l5 5 l5 -5z" fill="#E07856"/>
  <path d="M60 75 q-5 5 -10 3 M60 75 q5 5 10 3" fill="none" stroke="#065f46" stroke-width="2.2" stroke-linecap="round"/>
</svg>
